<?xml version="1.0" standalone="no"?>
<!DOCTYPE svg PUBLIC "-//W3C//DTD SVG 20010904//EN"
 "http://www.w3.org/TR/2001/REC-SVG-20010904/DTD/svg10.dtd">
<svg version="1.0" xmlns="http://www.w3.org/2000/svg"
 width="72.000000pt" height="72.000000pt" viewBox="0 0 72.000000 72.000000"
 preserveAspectRatio="xMidYMid meet">
<metadata>
Created by potrace 1.11, written by Peter Selinger 2001-2013
</metadata>
<g transform="translate(0.000000,72.000000) scale(0.100000,-0.100000)"
fill="#000000" stroke="none">
<path d="M75 670 c-12 -19 14 -381 34 -470 4 -22 13 -34 22 -33 8 1 95 18 194
37 270 52 298 56 328 48 25 -7 18 -10 -57 -28 -55 -14 -84 -17 -83 -10 1 6 -7
10 -18 8 -36 -5 -45 -11 -39 -25 7 -19 -15 -26 -90 -33 -76 -7 -296 -55 -278
-62 7 -2 33 1 58 7 43 11 46 11 70 -18 42 -51 105 -74 182 -69 81 6 129 29
138 65 8 30 -4 53 -36 69 -22 12 -22 12 11 27 19 9 61 21 94 28 89 18 88 16
75 155 -12 130 -31 257 -37 250 -2 -2 3 -53 11 -112 25 -181 28 -244 11 -238
-8 3 -16 13 -19 22 -6 19 -28 255 -30 314 -1 44 23 39 -291 63 -247 18 -242
18 -250 5z m364 -83 c36 -17 71 -42 79 -54 17 -26 11 -30 -12 -8 -11 12 -20
13 -43 4 -15 -6 -46 -9 -68 -8 -22 1 -49 1 -60 0 -17 -1 -18 -3 -5 -11 13 -8
13 -10 -2 -10 -9 0 -20 5 -23 10 -5 8 -11 7 -21 -1 -19 -16 -18 -33 2 -25 8 3
25 1 36 -5 14 -7 23 -8 27 -1 9 14 38 17 97 8 l50 -7 2 -61 c3 -92 -34 -138
-109 -138 -90 0 -164 105 -111 158 17 16 16 17 -18 27 -30 9 -35 15 -38 45 -4
44 35 85 93 99 57 13 54 14 124 -22z m147 -107 c12 0 25 -7 28 -16 8 -20 8
-74 1 -74 -13 0 -65 31 -65 39 0 5 -3 24 -6 42 -6 28 -4 32 7 22 7 -7 23 -13
35 -13z m-388 -46 c9 -39 8 -42 -22 -62 -63 -43 -66 -41 -66 29 0 34 3 60 6
56 3 -3 20 1 37 8 18 7 33 12 34 11 1 -1 6 -20 11 -42z m332 -313 c0 -4 -16
-24 -35 -44 -26 -27 -46 -37 -80 -43 -58 -8 -114 1 -134 22 -15 15 -13 16 18
12 31 -5 58 -1 139 17 12 3 22 13 22 21 0 13 3 14 14 5 17 -15 29 0 20 24 -6
15 -4 16 14 6 12 -7 22 -15 22 -20z"/>
<path d="M631 644 c0 -11 3 -14 6 -6 3 7 2 16 -1 19 -3 4 -6 -2 -5 -13z"/>
</g>
</svg>
